<svg width="90" height="90" viewBox="0 0 90 90" fill="none" xmlns="http://www.w3.org/2000/svg">
<path d="M44.9947 0C36.0949 0.00105409 27.3952 2.64111 19.9958 7.5863C12.5963 12.5315 6.82937 19.5597 3.42416 27.7823C0.0189604 36.0049 -0.871582 45.0527 0.865138 53.7814C2.60186 62.5101 6.88786 70.5278 13.1812 76.8208C19.4745 83.1137 27.4925 87.3992 36.2213 89.1354C44.9501 90.8716 53.9977 89.9805 62.2202 86.5749C70.4426 83.1692 77.4705 77.4018 82.4152 70.0021C87.36 62.6023 89.9995 53.9025 90 45.0027C89.9873 33.0707 85.2415 21.631 76.804 13.194C68.3666 4.75709 56.9267 0.011992 44.9947 0V0ZM46.1153 87.7056V61.1676H58.6067L53.5435 51.0279H56.6694L50.8147 39.3186H54.724L44.9973 19.8651L35.2706 39.3186H39.1813L33.3186 51.0279H36.4445L31.3746 61.1676H43.8661V87.7056C32.626 87.4109 21.9542 82.701 14.1613 74.5956C6.36836 66.4901 2.08151 55.6414 2.22885 44.3984C2.37619 33.1553 6.94586 22.4227 14.9485 14.5243C22.9511 6.62583 33.7427 2.19723 44.9867 2.19723C56.2307 2.19723 67.0222 6.62583 75.0249 14.5243C83.0275 22.4227 87.5972 33.1553 87.7445 44.3984C87.8919 55.6414 83.605 66.4901 75.8121 74.5956C68.0192 82.701 57.3474 87.4109 46.1073 87.7056H46.1153Z" fill="white"/>
</svg>
